<?xml version="1.0" encoding="UTF-8" standalone="no"?>
<!DOCTYPE svg PUBLIC "-//W3C//DTD SVG 1.1//EN"
 "http://www.w3.org/Graphics/SVG/1.1/DTD/svg11.dtd">
<!-- Generated by graphviz version 14.0.2 (0)
 -->
<!-- Title: G Pages: 1 -->
<svg width="264pt" height="772pt"
 viewBox="0.00 0.00 264.00 772.00" xmlns="http://www.w3.org/2000/svg" xmlns:xlink="http://www.w3.org/1999/xlink">
<g id="graph0" class="graph" transform="scale(1 1) rotate(0) translate(4 768)">
<title>G</title>
<polygon fill="white" stroke="none" points="-4,4 -4,-768 260,-768 260,4 -4,4"/>
<!-- A -->
<g id="node1" class="node">
<title>A</title>
<path fill="none" stroke="black" d="M198.25,-764C198.25,-764 57.75,-764 57.75,-764 51.75,-764 45.75,-758 45.75,-752 45.75,-752 45.75,-708 45.75,-708 45.75,-702 51.75,-696 57.75,-696 57.75,-696 198.25,-696 198.25,-696 204.25,-696 210.25,-702 210.25,-708 210.25,-708 210.25,-752 210.25,-752 210.25,-758 204.25,-764 198.25,-764"/>
<text xml:space="preserve" text-anchor="middle" x="128" y="-746.7" font-family="Inter, Helvetica, Arial" font-size="14.00">RAW DATA (1,460 × 81)</text>
<text xml:space="preserve" text-anchor="middle" x="128" y="-731.7" font-family="Inter, Helvetica, Arial" font-size="14.00">• 7,829 nulls</text>
<text xml:space="preserve" text-anchor="middle" x="128" y="-716.7" font-family="Inter, Helvetica, Arial" font-size="14.00">• Logical errors</text>
<text xml:space="preserve" text-anchor="middle" x="128" y="-701.7" font-family="Inter, Helvetica, Arial" font-size="14.00">• Mixed data types</text>
</g>
<!-- B -->
<g id="node2" class="node">
<title>B</title>
<path fill="none" stroke="black" d="M225.25,-653C225.25,-653 30.75,-653 30.75,-653 24.75,-653 18.75,-647 18.75,-641 18.75,-641 18.75,-582 18.75,-582 18.75,-576 24.75,-570 30.75,-570 30.75,-570 225.25,-570 225.25,-570 231.25,-570 237.25,-576 237.25,-582 237.25,-582 237.25,-641 237.25,-641 237.25,-647 231.25,-653 225.25,-653"/>
<text xml:space="preserve" text-anchor="middle" x="128" y="-635.7" font-family="Inter, Helvetica, Arial" font-size="14.00">STEP 1: PREPROCESSING</text>
<text xml:space="preserve" text-anchor="middle" x="128" y="-620.7" font-family="Inter, Helvetica, Arial" font-size="14.00">• Fix MasVnr logic (delete 2 rows)</text>
<text xml:space="preserve" text-anchor="middle" x="128" y="-605.7" font-family="Inter, Helvetica, Arial" font-size="14.00">• Fill 6,940 nulls</text>
<text xml:space="preserve" text-anchor="middle" x="128" y="-590.7" font-family="Inter, Helvetica, Arial" font-size="14.00">• Fix Garage consistency</text>
<text xml:space="preserve" text-anchor="middle" x="128" y="-575.7" font-family="Inter, Helvetica, Arial" font-size="14.00">• Train/Test Split (85/15)</text>
</g>
<!-- A&#45;&gt;B -->
<g id="edge1" class="edge">
<title>A&#45;&gt;B</title>
<path fill="none" stroke="black" d="M128,-695.72C128,-695.72 128,-664.78 128,-664.78"/>
<polygon fill="black" stroke="black" points="131.5,-664.78 128,-654.78 124.5,-664.78 131.5,-664.78"/>
</g>
<!-- C -->
<g id="node3" class="node">
<title>C</title>
<path fill="none" stroke="black" d="M101.25,-527C101.25,-527 44.75,-527 44.75,-527 38.75,-527 32.75,-521 32.75,-515 32.75,-515 32.75,-501 32.75,-501 32.75,-495 38.75,-489 44.75,-489 44.75,-489 101.25,-489 101.25,-489 107.25,-489 113.25,-495 113.25,-501 113.25,-501 113.25,-515 113.25,-515 113.25,-521 107.25,-527 101.25,-527"/>
<text xml:space="preserve" text-anchor="middle" x="73" y="-509.7" font-family="Inter, Helvetica, Arial" font-size="14.00">TRAIN</text>
<text xml:space="preserve" text-anchor="middle" x="73" y="-494.7" font-family="Inter, Helvetica, Arial" font-size="14.00">1,239 × 81</text>
</g>
<!-- B&#45;&gt;C -->
<g id="edge2" class="edge">
<title>B&#45;&gt;C</title>
<path fill="none" stroke="black" d="M73,-569.7C73,-569.7 73,-538.77 73,-538.77"/>
<polygon fill="black" stroke="black" points="76.5,-538.77 73,-528.77 69.5,-538.77 76.5,-538.77"/>
</g>
<!-- D -->
<g id="node4" class="node">
<title>D</title>
<path fill="none" stroke="black" d="M206.62,-527C206.62,-527 161.38,-527 161.38,-527 155.38,-527 149.38,-521 149.38,-515 149.38,-515 149.38,-501 149.38,-501 149.38,-495 155.38,-489 161.38,-489 161.38,-489 206.62,-489 206.62,-489 212.62,-489 218.62,-495 218.62,-501 218.62,-501 218.62,-515 218.62,-515 218.62,-521 212.62,-527 206.62,-527"/>
<text xml:space="preserve" text-anchor="middle" x="184" y="-509.7" font-family="Inter, Helvetica, Arial" font-size="14.00">TEST</text>
<text xml:space="preserve" text-anchor="middle" x="184" y="-494.7" font-family="Inter, Helvetica, Arial" font-size="14.00">219 × 81</text>
</g>
<!-- B&#45;&gt;D -->
<g id="edge3" class="edge">
<title>B&#45;&gt;D</title>
<path fill="none" stroke="black" d="M184,-569.7C184,-569.7 184,-538.77 184,-538.77"/>
<polygon fill="black" stroke="black" points="187.5,-538.77 184,-528.77 180.5,-538.77 187.5,-538.77"/>
</g>
<!-- E -->
<g id="node5" class="node">
<title>E</title>
<path fill="none" stroke="black" d="M232,-446C232,-446 24,-446 24,-446 18,-446 12,-440 12,-434 12,-434 12,-390 12,-390 12,-384 18,-378 24,-378 24,-378 232,-378 232,-378 238,-378 244,-384 244,-390 244,-390 244,-434 244,-434 244,-440 238,-446 232,-446"/>
<text xml:space="preserve" text-anchor="middle" x="128" y="-428.7" font-family="Inter, Helvetica, Arial" font-size="14.00">STEP 2: FEATURE ENGINEERING</text>
<text xml:space="preserve" text-anchor="middle" x="128" y="-413.7" font-family="Inter, Helvetica, Arial" font-size="14.00">• Create derived features (+6)</text>
<text xml:space="preserve" text-anchor="middle" x="128" y="-398.7" font-family="Inter, Helvetica, Arial" font-size="14.00">• Orthogonalize residuals</text>
<text xml:space="preserve" text-anchor="middle" x="128" y="-383.7" font-family="Inter, Helvetica, Arial" font-size="14.00">• Binary flags (Has* features)</text>
</g>
<!-- C&#45;&gt;E -->
<g id="edge4" class="edge">
<title>C&#45;&gt;E</title>
<path fill="none" stroke="black" d="M73,-488.57C73,-488.57 73,-457.68 73,-457.68"/>
<polygon fill="black" stroke="black" points="76.5,-457.68 73,-447.68 69.5,-457.68 76.5,-457.68"/>
</g>
<!-- D&#45;&gt;E -->
<g id="edge5" class="edge">
<title>D&#45;&gt;E</title>
<path fill="none" stroke="black" d="M184,-488.57C184,-488.57 184,-457.68 184,-457.68"/>
<polygon fill="black" stroke="black" points="187.5,-457.68 184,-447.68 180.5,-457.68 187.5,-457.68"/>
</g>
<!-- F -->
<g id="node6" class="node">
<title>F</title>
<path fill="none" stroke="black" d="M244,-335C244,-335 12,-335 12,-335 6,-335 0,-329 0,-323 0,-323 0,-264 0,-264 0,-258 6,-252 12,-252 12,-252 244,-252 244,-252 250,-252 256,-258 256,-264 256,-264 256,-323 256,-323 256,-329 250,-335 244,-335"/>
<text xml:space="preserve" text-anchor="middle" x="128" y="-317.7" font-family="Inter, Helvetica, Arial" font-size="14.00">STEP 3: TRANSFORMATION</text>
<text xml:space="preserve" text-anchor="middle" x="128" y="-302.7" font-family="Inter, Helvetica, Arial" font-size="14.00">• log1p(SalePrice): skew 2.009 → 0.205</text>
<text xml:space="preserve" text-anchor="middle" x="128" y="-287.7" font-family="Inter, Helvetica, Arial" font-size="14.00">• log1p for 15 features</text>
<text xml:space="preserve" text-anchor="middle" x="128" y="-272.7" font-family="Inter, Helvetica, Arial" font-size="14.00">• Yeo&#45;Johnson for 9 features</text>
<text xml:space="preserve" text-anchor="middle" x="128" y="-257.7" font-family="Inter, Helvetica, Arial" font-size="14.00">• Binning: KitchenAbvGr</text>
</g>
<!-- E&#45;&gt;F -->
<g id="edge6" class="edge">
<title>E&#45;&gt;F</title>
<path fill="none" stroke="black" d="M128,-377.72C128,-377.72 128,-346.78 128,-346.78"/>
<polygon fill="black" stroke="black" points="131.5,-346.78 128,-336.78 124.5,-346.78 131.5,-346.78"/>
</g>
<!-- G2 -->
<g id="node7" class="node">
<title>G2</title>
<path fill="none" stroke="black" d="M230.88,-209C230.88,-209 25.12,-209 25.12,-209 19.12,-209 13.12,-203 13.12,-197 13.12,-197 13.12,-138 13.12,-138 13.12,-132 19.12,-126 25.12,-126 25.12,-126 230.88,-126 230.88,-126 236.88,-126 242.88,-132 242.88,-138 242.88,-138 242.88,-197 242.88,-197 242.88,-203 236.88,-209 230.88,-209"/>
<text xml:space="preserve" text-anchor="middle" x="128" y="-191.7" font-family="Inter, Helvetica, Arial" font-size="14.00">STEP 4: ENCODING</text>
<text xml:space="preserve" text-anchor="middle" x="128" y="-176.7" font-family="Inter, Helvetica, Arial" font-size="14.00">• Ordinal: 17 (Quality scales)</text>
<text xml:space="preserve" text-anchor="middle" x="128" y="-161.7" font-family="Inter, Helvetica, Arial" font-size="14.00">• One&#45;Hot: 110 (Nominal cats)</text>
<text xml:space="preserve" text-anchor="middle" x="128" y="-146.7" font-family="Inter, Helvetica, Arial" font-size="14.00">• Target Encoding: 2 (Cross&#45;fit K=5)</text>
<text xml:space="preserve" text-anchor="middle" x="128" y="-131.7" font-family="Inter, Helvetica, Arial" font-size="14.00">• StandardScaler: All 173</text>
</g>
<!-- F&#45;&gt;G2 -->
<g id="edge7" class="edge">
<title>F&#45;&gt;G2</title>
<path fill="none" stroke="black" d="M128,-251.54C128,-251.54 128,-220.79 128,-220.79"/>
<polygon fill="black" stroke="black" points="131.5,-220.79 128,-210.79 124.5,-220.79 131.5,-220.79"/>
</g>
<!-- H -->
<g id="node8" class="node">
<title>H</title>
<path fill="none" stroke="black" d="M222.62,-83C222.62,-83 33.38,-83 33.38,-83 27.38,-83 21.37,-77 21.37,-71 21.37,-71 21.37,-12 21.37,-12 21.37,-6 27.37,0 33.37,0 33.37,0 222.62,0 222.62,0 228.62,0 234.62,-6 234.62,-12 234.62,-12 234.62,-71 234.62,-71 234.62,-77 228.62,-83 222.62,-83"/>
<text xml:space="preserve" text-anchor="middle" x="128" y="-65.7" font-family="Inter, Helvetica, Arial" font-size="14.00">FINAL: PRODUCTION&#45;READY</text>
<text xml:space="preserve" text-anchor="middle" x="128" y="-50.7" font-family="Inter, Helvetica, Arial" font-size="14.00">• 1,239 × 173 (train)</text>
<text xml:space="preserve" text-anchor="middle" x="128" y="-35.7" font-family="Inter, Helvetica, Arial" font-size="14.00">• 219 × 173 (test)</text>
<text xml:space="preserve" text-anchor="middle" x="128" y="-20.7" font-family="Inter, Helvetica, Arial" font-size="14.00">• 0 nulls, 0 logical errors</text>
<text xml:space="preserve" text-anchor="middle" x="128" y="-5.7" font-family="Inter, Helvetica, Arial" font-size="14.00">• Zero leakage, fully reproducible</text>
</g>
<!-- G2&#45;&gt;H -->
<g id="edge8" class="edge">
<title>G2&#45;&gt;H</title>
<path fill="none" stroke="black" d="M128,-125.54C128,-125.54 128,-94.79 128,-94.79"/>
<polygon fill="black" stroke="black" points="131.5,-94.79 128,-84.79 124.5,-94.79 131.5,-94.79"/>
</g>
</g>
</svg>
